<?xml version="1.0" encoding="iso-8859-1"?>
<!-- Generator: Adobe Illustrator 16.0.0, SVG Export Plug-In . SVG Version: 6.00 Build 0)  -->
<!DOCTYPE svg PUBLIC "-//W3C//DTD SVG 1.1//EN" "http://www.w3.org/Graphics/SVG/1.1/DTD/svg11.dtd">
<svg version="1.1" id="Capa_1" xmlns="http://www.w3.org/2000/svg" xmlns:xlink="http://www.w3.org/1999/xlink" x="0px" y="0px"
	 width="381.745px" height="381.745px" viewBox="0 0 381.745 381.745" style="enable-background:new 0 0 381.745 381.745;"
	 xml:space="preserve">
<g>
	<path d="M205.068,2.244C91.236-9.384,9.84,81.192,0.66,188.292C-3.624,239.7,12.9,289.884,51.456,324.156
		c20.808,18.36,50.184,36.108,80.784,43.452c97.309,43.452,216.036-28.764,242.964-128.521
		C407.028,124.645,318.288,13.872,205.068,2.244z M265.656,79.968c0.612,1.836,1.225,3.672,2.448,5.508
		c-2.448-2.447-4.284-4.283-6.731-6.731C263.209,78.744,264.433,79.356,265.656,79.968z M186.096,312.528
		C147.54,272.137,120,220.116,75.936,185.232c-1.224-3.061-2.448-6.732-3.06-10.404c23.256-3.061,47.124-6.12,70.38-2.448
		c3.06,0.612,5.508-0.612,7.344-2.448c1.836-0.611,3.672-2.447,3.672-4.896c-0.612-22.645-2.448-44.676-4.284-67.32
		c26.316-1.836,53.857-8.567,80.172-3.672c15.301,3.061-3.672,51.408-1.224,66.096c-1.224,3.061,0,7.956,4.284,9.181
		c11.016,3.06,23.256,1.224,34.884,0.611c4.896,0,10.404,0,15.3-0.611C255.864,220.116,232.608,277.645,186.096,312.528z"/>
</g>

</svg>
