<?xml version="1.0" encoding="utf-8"?>
<!-- Designed by Vexels.com - 2019 All Rights Reserved - https://vexels.com/terms-and-conditions/  -->
<svg version="1.1" id="Capa_1" xmlns="http://www.w3.org/2000/svg" xmlns:xlink="http://www.w3.org/1999/xlink" x="0px" y="0px"
	 viewBox="0 0 1200 1200" enable-background="new 0 0 1200 1200" xml:space="preserve">
<g>
	<path fill="#FFFFFF" d="M245.655,975.324c0,0-64.131,127.623,105.592,153.574c119.485,18.281,443.89-47.385,511.134-194.141
		l9.332,2.429c0.979,0.597,1.96,1.151,2.811,1.534c61.148,32.982,97.838,5.497,131.97-18.281
		c34.772-24.374,90.168-102.653,38.009-283.2c-52.156-180.505-124.512-184.255-196.185-129.115l-7.415,2.514
		C801.53,451.45,733.862,404.023,673.055,374.536c-70.736-34.303-86.887-127.879-96.644-210.376
		C564.948,67.047,502.308,46.124,419.3,90.483c-67.072,35.709-92.895,204.837-18.835,300.458
		c22.159,28.593,71.844,65.921,102.312,80.196l0.341,2.386c-4.943,0.639-9.801,1.406-14.573,2.259
		c-65.581-68.35-202.365-20.156-226.868-2.983c-59.102,41.376-103.376,73.889-124.598,138.915c0,0-22.797,100.905,60.722,152.381
		l-1.065,1.619C128.642,804.62,105.76,932.84,246.082,973.96L245.655,975.324z"/>
	<path d="M226.946,1077.212c19.048,36.882,59.938,60.357,121.535,69.774c13.083,2.002,28.897,3.014,46.786,3.014
		c137.897,0,398.643-60.274,475.848-192.504c20.976,10.438,39.753,14.61,56.62,14.61c36.704,0,64.471-19.38,86.747-34.926
		l2.517-1.756c25.883-18.145,105.639-93.644,45.086-303.266c-28.427-98.388-65.154-153.725-112.269-169.177
		c-31.318-10.278-66.081-2.204-103.436,23.903c-37.077-49-96.327-95.35-165.34-128.815c-61.931-30.033-77.102-116.95-86.459-196.056
		c-7.492-63.504-35.067-90.415-56.883-101.806C504.414,42.826,460.5,47.713,410.7,74.33
		c-31.218,16.622-55.574,56.228-66.819,108.665c-13.379,62.382-9.344,152.713,42.122,219.158
		c5.126,6.613,11.49,13.522,18.573,20.452c-67.437-4.004-137.134,23.805-153.397,35.204
		c-55.405,38.788-107.741,75.426-131.495,148.23c-0.178,0.54-0.328,1.09-0.451,1.644c-7.982,35.329-6.348,108.781,48.364,156.777
		c-30.117,27.114-46.96,69.525-42.131,110.608c5.772,49.131,40.761,88.457,96.851,110.08
		C215.703,1006.326,209.208,1042.862,226.946,1077.212z M161.815,870.795c-3.772-32.112,11.735-66.515,37.421-84.913
		c17.795,9.266,38.263,16.141,61.113,20.403c24.583,4.615,48.478,6.92,71.598,6.918c36.344,0,70.768-5.698,102.88-17.071
		c9.526-3.374,14.515-13.833,11.14-23.361c-3.374-9.528-13.84-14.499-23.361-11.14c-46.372,16.428-98.689,19.351-155.526,8.678
		c-23.279-4.341-43.339-11.665-59.673-21.793c-68.429-42.169-54.457-122.915-52.628-132.037
		c19.102-57.619,57.12-86.491,117.399-128.693c14.614-10.243,108.188-46.283,172.011-20.177
		c-60.745,18.184-100.194,46.954-114.85,57.67c-1.541,1.126-2.713,1.993-3.516,2.529c-8.4,5.616-10.661,16.979-5.048,25.384
		c3.53,5.281,9.325,8.135,15.235,8.135c3.493,0,7.027-0.999,10.151-3.085c1.085-0.727,2.69-1.888,4.784-3.42
		c15.911-11.635,64.086-46.804,138.873-60.635c1.375-0.091,2.73-0.341,4.064-0.745c3.991-0.686,7.824-1.283,11.581-1.769
		c0.228-0.03,0.451-0.062,0.679-0.1c0.766-0.128,1.505-0.221,2.271-0.317c10.028-1.254,17.141-10.399,15.887-20.429
		c-0.815-6.516-4.99-11.772-10.545-14.332c-0.985-0.736-2.055-1.387-3.213-1.93c-27.315-12.798-75.027-48.275-95.607-74.831
		c-36.07-46.57-49.915-120.783-35.268-189.064c8.847-41.251,26.877-72.665,48.259-84.047c38.67-20.666,70.768-25.489,92.825-13.974
		c25.359,13.242,34.379,47.361,37.484,73.659c10.493,88.735,28.273,186.597,106.834,224.694
		c69.674,33.788,128.211,81.087,160.597,129.771c12.558,18.886,21.35,38.118,26.12,57.165c2.084,8.311,9.54,13.858,17.739,13.856
		c1.473,0,2.969-0.178,4.46-0.552c9.804-2.458,15.76-12.397,13.306-22.201c-4.339-17.313-11.31-34.599-20.793-51.587
		c28.01-19.893,51.596-26.355,71.911-19.696c33.781,11.079,64.388,61.066,88.511,144.557
		c55.209,191.113-16.083,252.729-30.89,263.108l-2.499,1.742c-31.872,22.248-59.509,41.491-107.479,16.921
		c5.582-17.705,7.826-35.988,6.646-54.578c-0.638-10.091-9.503-17.798-19.421-17.105c-10.087,0.638-17.748,9.334-17.105,19.421
		c1.204,18.97-2.303,37.58-10.429,55.309c-62.884,137.227-381.292,200.571-491.733,183.671c-49.235-7.529-81.01-24.41-94.439-50.184
		c-12.116-23.249-6.972-49.757-2.204-64.864c7.612,1.729,15.813,3.312,24.931,4.744c21.56,3.197,42.573,4.793,62.957,4.793
		c34.967,0,68.096-4.697,99-14.077c9.672-2.932,15.135-13.151,12.198-22.823c-2.937-9.667-13.151-15.153-22.823-12.198
		c-43.708,13.261-92.816,15.983-145.804,8.126c-14.31-2.253-26.234-4.829-36.453-7.889c-0.237-0.073-0.479-0.141-0.725-0.201
		C198.003,940.646,166.461,910.322,161.815,870.795z"/>
	<path d="M560.932,765.908c1.683,0,3.397-0.233,5.098-0.725l92.469-26.759c9.708-2.809,15.299-12.957,12.49-22.666
		c-2.809-9.706-12.946-15.31-22.668-12.492l-92.469,26.759c-9.708,2.809-15.299,12.957-12.49,22.666
		C545.678,760.701,552.993,765.908,560.932,765.908z"/>
	<path d="M665.102,877.699l-96.647,25.783c-9.768,2.608-15.573,12.636-12.969,22.399c2.184,8.185,9.585,13.589,17.67,13.589
		c1.564,0,3.151-0.201,4.729-0.62l96.646-25.783c9.768-2.608,15.573-12.636,12.969-22.399
		C684.893,880.9,674.82,875.109,665.102,877.699z"/>
</g>
</svg>
