<?xml version="1.0" encoding="utf-8"?>
<!-- Designed by Vexels.com - 2019 All Rights Reserved - https://vexels.com/terms-and-conditions/  -->
<svg version="1.1" id="Capa_1" xmlns="http://www.w3.org/2000/svg" xmlns:xlink="http://www.w3.org/1999/xlink" x="0px" y="0px"
	 viewBox="0 0 1200 1200" enable-background="new 0 0 1200 1200" xml:space="preserve">
<g>
	<path fill="#FFFFFF" d="M1084.87,532.687c-87.292-186.368-287.659-97.321-409.132-140.696l-4.387-2.173
		c0-0.042,0.042-0.042,0.042-0.084c59.838-126.237-8.4-288.954-92.975-312.48c-104.76-29.292-170.198,9.987-158.831,122.393
		c9.61,95.482,47.595,120.346,17.55,206.091c-63.432,17.885-107.6,60.298-130.082,117.295l-4.638-1.128
		c-83.95-49.392-160.669-35.519-192.051,164.221c-31.423,199.907,31.841,268.395,67.527,296.935
		c25.783,20.601,93.938,45.673,154.694,2.131c64.059,68.697,193.431,70.118,288.913,54.991l1.087-0.627
		c36.897,68.53,152.604,118.674,294.679,78.015c177.843-50.603,92.014-178.262,92.014-178.262l-0.836-1.588
		c134.135-66.399,37.65-215.87,37.65-215.87l-5.851-3.008C1110.902,667.825,1104.802,575.267,1084.87,532.687z"/>
	<path d="M1101.121,525.078c-63.769-136.147-183.206-136.442-288.587-136.704c-42.674-0.107-83.253-0.219-117.298-9.16
		c25.44-67.283,22.122-146.951-9.917-217.096c-24.522-53.695-61.737-90.928-102.07-102.145
		c-61.821-17.282-111.587-12.032-143.935,15.184c-21.169,17.811-44.872,54.182-37.58,126.288
		c3.639,36.165,11.067,62.275,17.619,85.313c10.266,36.086,17.244,60.667,3.63,104.604C367.284,409.6,323.725,447.3,298.129,499.121
		c-41.707-21.361-78.434-24.879-109.323-10.292c-47.691,22.546-79.15,86.17-96.169,194.511
		c-23.913,152.141,0.309,254.764,74.054,313.746c19.221,15.357,53.456,29.922,91.842,29.922c23.202,0,47.921-5.358,71.758-19.051
		c51.628,46.049,129.181,57.928,195.318,57.928c34.139,0,65.208-3.158,88.111-6.395c34.308,50.94,108.987,90.513,204.04,90.509
		c32.672,0,67.75-4.674,104.417-15.17c63.971-18.2,104.089-48.422,119.244-89.828c14.705-40.186,1.295-79.407-8.712-100.29
		c31.057-19.333,51.236-45.159,60.019-77.01c16.743-60.746-13.896-124.462-26.533-147.08
		C1126.682,663.972,1124.277,574.542,1101.121,525.078z M345.706,972.953c-23.586-25.276-35.079-59.746-34.165-102.454
		c0.211-9.91-7.648-18.115-17.558-18.326c-0.131,0-0.262-0.005-0.393-0.005c-9.732,0-17.722,7.784-17.933,17.563
		c-0.934,43.697,9.206,80.813,30.1,110.704c-51.206,25.187-101.675,0.58-116.654-11.383c-23.08-18.457-93.312-74.625-61.011-280.138
		c14.832-94.389,40.423-150.787,76.059-167.633c21.23-10.041,47.656-6.336,80.531,11.268
		c-16.254,51.102-16.892,110.209-1.592,172.224c10.215,40.877,55.25,88.802,60.35,94.132c3.522,3.686,8.238,5.54,12.964,5.536
		c4.454,0,8.922-1.649,12.397-4.974c7.166-6.847,7.419-18.204,0.571-25.37c-12.041-12.603-44.759-51.194-51.452-77.974
		c-15.118-61.287-13.109-118.846,5.831-166.5c16.125-40.891,43.571-71.929,80.339-91.463c-1.822,3.754-3.692,7.546-5.709,11.447
		c-4.552,8.805-1.105,19.633,7.7,24.185c8.8,4.543,19.628,1.105,24.185-7.7c9.889-19.134,17.36-36.159,22.888-51.912
		c0.866-1.647,1.517-3.424,1.843-5.328c19.738-58.3,10.095-92.487-1.122-131.909c-6.145-21.605-13.109-46.094-16.434-79.103
		c-3.152-31.196-1.382-73.038,24.981-95.218c22.855-19.23,61.301-22.026,111.184-8.074c29.693,8.257,59.25,39.092,79.065,82.48
		c23.628,51.728,36.699,132.672,2.604,204.815c-0.047,0.094-0.098,0.192-0.141,0.29h-0.005
		c-13.966,29.482-34.751,54.997-61.765,75.839c-7.849,6.056-9.306,17.324-3.25,25.169c3.536,4.585,8.847,6.988,14.224,6.988
		c3.826,0,7.681-1.218,10.945-3.737c26.99-20.822,48.648-45.746,64.635-74.204c39.914,11.818,84.999,11.962,132.528,12.083
		c103.911,0.258,202.061,0.501,256.173,116.032c14.898,31.824,25.792,117.301-38.811,163.948c-2.37,1.695-4.73,3.274-7.184,4.819
		c-10.411,4.721-22.401,8.987-36.54,13.02c-100.587,28.239-194.453,17.292-258.22-29.842c-1.424-1.503-3.069-2.74-4.899-3.672
		c-6.762-5.354-13.064-11.072-18.752-17.104c-17.9-18.841-29.224-39.964-32.765-61.161c-5.044-29.421,4.58-56.805,27.103-77.103
		c30.327-27.33,78.229-37.081,122.171-24.966c25.84,10.371,52.565,19.004,79.473,25.622c1.438,0.351,2.88,0.525,4.299,0.525
		c8.07,0,15.399-5.48,17.413-13.666c2.365-9.624-3.517-19.342-13.142-21.712c-25.688-6.318-51.218-14.575-75.876-24.536
		c-0.318-0.129-0.646-0.172-0.967-0.282c-0.31-0.105-0.587-0.266-0.906-0.355c-56.529-15.863-116.509-3.325-156.491,32.709
		c-31.997,28.836-45.649,67.839-38.465,109.751c4.712,28.218,19.282,55.845,42.08,79.843c0.923,0.978,1.9,1.93,2.849,2.896
		c-50.327,26.317-76.951,75.693-67.625,130.052c3.488,21.112,12.559,41.951,26.525,61.241
		c-19.045,12.772-42.551,39.337-47.141,93.658c-1.126,13.759,0.481,27.771,4.625,41.426
		C535.705,1032.826,407.185,1038.875,345.706,972.953z M1007.715,1032.671c-10.983,30.002-43.064,52.759-95.387,67.647
		c-133.187,38.128-240.54-7.245-273.928-69.244c-7.77-14.481-11.095-29.342-9.887-44.118c3.883-45.923,23.932-63.211,35.485-69.434
		c40.325,37.799,106.679,68.67,193.754,68.666c35.191,0,73.768-5.039,115.352-16.701c9.908-2.816,18.923-5.832,27.386-9.057
		C1007.843,975.721,1017.998,1004.567,1007.715,1032.671z M1058.09,858.298c-7.409,26.719-26.709,47.991-57.376,63.226
		c-10.889,4.983-23.131,9.376-37.36,13.423c-136.643,38.312-235.162-0.982-281.842-50.584c-0.133-0.139-0.247-0.295-0.384-0.431
		c-17.707-18.847-28.905-39.824-32.373-60.811c-8.366-48.782,24.305-83.629,62.65-98.427c45.943,32.165,104.064,48.67,168.2,48.67
		c37.139,0,76.293-5.526,116.247-16.743c15.708-4.475,29.127-9.29,41.048-14.662C1048.149,763.225,1070.503,813.526,1058.09,858.298
		z"/>
</g>
</svg>
